HIERARCHY
ROOT Hips
{
	OFFSET -99.813 92.66 37.7939
	CHANNELS 6 Xposition Yposition Zposition Zrotation Xrotation Yrotation
	JOINT Spine
	{
		OFFSET 0 9.61096 0
		CHANNELS 3 Zrotation Xrotation Yrotation
		JOINT Spine1
		{
			OFFSET 0 9.61096 0
			CHANNELS 3 Zrotation Xrotation Yrotation
			JOINT Spine2
			{
				OFFSET 0 9.61096 0
				CHANNELS 3 Zrotation Xrotation Yrotation
				JOINT Spine3
				{
					OFFSET 0 9.61096 0
					CHANNELS 3 Zrotation Xrotation Yrotation
					JOINT LeftShoulder
					{
						OFFSET 1.5 7.45162 0
						CHANNELS 3 Zrotation Xrotation Yrotation
						JOINT LeftArm
						{
							OFFSET 13.8827 0 0
							CHANNELS 3 Zrotation Xrotation Yrotation
							JOINT LeftForeArm
							{
								OFFSET 27.9625 0 0
								CHANNELS 3 Zrotation Xrotation Yrotation
								JOINT LeftHand
								{
									OFFSET 22.178 0 0
									CHANNELS 3 Zrotation Xrotation Yrotation
									End Site
									{
										OFFSET 10 0 0
									}
								}
							}
						}
					}
					JOINT RightShoulder
					{
						OFFSET -1.49999 7.45162 0
						CHANNELS 3 Zrotation Xrotation Yrotation
						JOINT RightArm
						{
							OFFSET -13.8827 0 0
							CHANNELS 3 Zrotation Xrotation Yrotation
							JOINT RightForeArm
							{
								OFFSET -27.9625 0 0
								CHANNELS 3 Zrotation Xrotation Yrotation
								JOINT RightHand
								{
									OFFSET -22.178 0 0
									CHANNELS 3 Zrotation Xrotation Yrotation
									End Site
									{
										OFFSET -10 0 0
									}
								}
							}
						}
					}
					JOINT Neck
					{
						OFFSET 0 9.61096 0
						CHANNELS 3 Zrotation Xrotation Yrotation
						JOINT Head
						{
							OFFSET 0 9.64467 0
							CHANNELS 3 Zrotation Xrotation Yrotation
							End Site
							{
								OFFSET 0 15 0
							}
						}
					}
				}
			}
		}
	}
	JOINT LeftUpLeg
	{
		OFFSET 11.7021 0 0
		CHANNELS 3 Zrotation Xrotation Yrotation
		JOINT LeftLeg
		{
			OFFSET 0 -46.0068 0
			CHANNELS 3 Zrotation Xrotation Yrotation
			JOINT LeftFoot
			{
				OFFSET 0 -37.7985 0
				CHANNELS 3 Zrotation Xrotation Yrotation
				JOINT LeftToeBase
				{
					OFFSET 0 -6.40715 11.0975
					CHANNELS 3 Zrotation Xrotation Yrotation
					End Site
					{
						OFFSET 0 0 5
					}
				}
			}
		}
	}
	JOINT RightUpLeg
	{
		OFFSET -11.7021 0 0
		CHANNELS 3 Zrotation Xrotation Yrotation
		JOINT RightLeg
		{
			OFFSET 0 -46.0068 0
			CHANNELS 3 Zrotation Xrotation Yrotation
			JOINT RightFoot
			{
				OFFSET 0 -37.7985 0
				CHANNELS 3 Zrotation Xrotation Yrotation
				JOINT RightToeBase
				{
					OFFSET 0 -6.40715 11.0975
					CHANNELS 3 Zrotation Xrotation Yrotation
					End Site
					{
						OFFSET 0 0 5
					}
				}
			}
		}
	}
}
MOTION
Frames: 19
Frame Time: 0.0111111
-99.813 92.66 37.7939 179.392 -179.746 -176.317 0.656936 3.89753 -0.640635 0.656936 3.89753 -0.640635 0.656936 3.89753 -0.640635 0.656936 3.89753 -0.640635 158.007 -179.408 179.114 166.097 157.372 156.436 0.0388406 44.057 -8.35685 157.427 -170.035 170.526 23.2447 2.518 9.83367 19.2345 5.67002 13.7127 11.8881 30.3477 7.22432 14.9001 -12.9305 10.8703 2.91915 -27.5908 4.35467 0.703558 5.67407 1.0263 6.25336 -2.50215 -4.92309 175.021 -178.934 -178.741 2.37258 5.40597 13.5135 0.113271 -3.30476 0.122611 179.512 -176.989 -179.763 178.643 177.405 -179.195 0.403279 0.788561 -10.1109 0.0964209 1.14643 0.128337
-99.8164 92.6565 37.7937 179.39 -179.727 -176.32 0.656088 3.90524 -0.639602 0.656088 3.90524 -0.639602 0.656088 3.90524 -0.639602 0.656088 3.90524 -0.639602 158.015 -179.421 179.114 166.095 157.397 156.407 0.0586638 44.0633 -8.36542 157.29 -169.934 170.464 23.2538 2.53432 9.8338 19.2133 5.68437 13.7253 11.8852 30.2968 7.21727 14.9411 -13.007 10.9551 2.93189 -27.5869 4.367 0.679793 5.6604 1.00721 6.25739 -2.48609 -4.90581 175.021 -178.935 -178.741 2.3931 5.42174 13.4919 0.113263 -3.30104 0.122611 179.523 -176.983 -179.787 178.642 177.356 -179.195 0.414555 0.725738 -10.1013 0.0962953 1.2025 0.12834
-99.8161 92.6584 37.7877 179.395 -179.735 -176.315 0.654016 3.90934 -0.641369 0.654016 3.90934 -0.641369 0.654016 3.90934 -0.641369 0.654016 3.90934 -0.641369 157.991 -179.412 179.114 166.121 157.411 156.394 0.0474169 43.9719 -8.37969 157.558 -170.07 170.604 23.2573 2.54179 9.83385 19.2051 5.67065 13.7338 11.8697 30.2988 7.22191 15.0057 -13.039 11.0344 2.93472 -27.625 4.37212 0.682127 5.66427 1.00944 6.25401 -2.49588 -4.96595 175.021 -178.935 -178.741 2.35551 5.3911 13.5322 0.113222 -3.28173 0.122608 179.513 -176.974 -179.768 178.642 177.355 -179.195 0.42459 0.754427 -10.1189 0.096369 1.16958 0.128338
-99.8164 92.6586 37.7879 179.402 -179.733 -176.312 0.651745 3.9105 -0.642933 0.651745 3.9105 -0.642933 0.651745 3.9105 -0.642933 0.651745 3.9105 -0.642933 157.986 -179.409 179.114 166.123 157.414 156.38 0.0581705 43.9707 -8.39094 157.562 -170.07 170.602 23.2579 2.54564 9.83388 19.2036 5.67306 13.737 11.872 30.2993 7.22372 15.0075 -13.0379 11.0349 2.93876 -27.6226 4.37083 0.68445 5.66472 1.007 6.24432 -2.49702 -4.95359 175.021 -178.938 -178.741 2.36966 5.40705 13.5484 0.113221 -3.28144 0.122608 179.507 -176.975 -179.777 178.642 177.358 -179.195 0.419366 0.745211 -10.1271 0.0963693 1.16943 0.128338
-99.8219 92.6571 37.7838 179.398 -179.724 -176.313 0.650681 3.91897 -0.639967 0.650681 3.91897 -0.639967 0.650681 3.91897 -0.639967 0.650681 3.91897 -0.639967 157.998 -179.419 179.114 166.123 157.428 156.333 0.0759836 43.9514 -8.39866 157.496 -170.039 170.561 23.2632 2.53275 9.83378 19.1859 5.69898 13.744 11.8892 30.2437 7.22864 14.9602 -12.9131 10.9706 2.93813 -27.6345 4.33698 0.694382 5.6493 1.01883 6.25604 -2.48988 -5.00155 175.021 -178.937 -178.741 2.35558 5.41551 13.5691 0.113336 -3.33499 0.122615 179.515 -176.956 -179.795 178.641 177.313 -179.195 0.428423 0.750043 -10.117 0.0964598 1.12905 0.128336
-99.8296 92.6545 37.7942 179.386 -179.681 -176.309 0.652924 3.9325 -0.640471 0.652924 3.9325 -0.640471 0.652924 3.9325 -0.640471 0.652924 3.9325 -0.640471 157.995 -179.448 179.114 166.145 157.425 156.301 0.103119 43.9277 -8.4164 158.245 -170.632 170.964 23.2659 2.55522 9.83396 19.1657 5.73732 13.7588 11.8653 30.1859 7.24709 14.997 -12.937 11.0265 2.95235 -27.6239 4.34619 0.704041 5.65142 1.02677 6.27021 -2.4475 -4.9758 175.021 -178.937 -178.741 2.39001 5.43155 13.5644 0.113429 -3.37832 0.12262 179.537 -177.095 -179.722 178.644 177.501 -179.195 0.397297 0.831572 -10.1886 0.0964042 1.15386 0.128338
-99.8357 92.6556 37.7839 179.363 -179.707 -176.311 0.661987 3.92765 -0.640415 0.661987 3.92765 -0.640415 0.661987 3.92765 -0.640415 0.661987 3.92765 -0.640415 157.968 -179.437 179.114 166.129 157.446 156.304 0.142553 43.9739 -8.45617 157.654 -170.076 170.6 23.2514 2.5571 9.83397 19.1705 5.67814 13.7655 11.8865 30.3176 7.23121 14.9988 -12.9777 11.0235 2.94374 -27.613 4.34909 0.700418 5.63644 1.02293 6.29598 -2.48172 -4.9801 175.021 -178.939 -178.741 2.42049 5.46035 13.5272 0.113315 -3.32518 0.122614 179.559 -177.043 -179.692 178.643 177.455 -179.195 0.420055 0.806833 -10.1832 0.0963741 1.16731 0.128338
-99.8378 92.652 37.7786 179.397 -179.711 -176.326 0.64283 3.92952 -0.633301 0.64283 3.92952 -0.633301 0.64283 3.92952 -0.633301 0.64283 3.92952 -0.633301 158.017 -179.44 179.114 166.119 157.415 156.282 0.182438 43.9595 -8.50025 157.663 -170.033 170.591 23.2886 2.55999 9.83399 19.1706 5.70035 13.7651 11.8701 30.2947 7.22624 14.9572 -13.0051 11.0208 2.96871 -27.5938 4.2967 0.701919 5.6201 1.02263 6.26333 -2.48339 -4.98649 175.021 -178.939 -178.741 2.38068 5.41881 13.5961 0.113185 -3.26444 0.122606 179.529 -176.925 -179.862 178.64 177.223 -179.195 0.367507 0.671881 -10.0162 0.0963048 1.19822 0.12834
-99.8384 92.6519 37.7784 179.401 -179.71 -176.333 0.640911 3.93144 -0.632369 0.640911 3.93144 -0.632369 0.640911 3.93144 -0.632369 0.640911 3.93144 -0.632369 158.007 -179.437 179.114 166.113 157.418 156.276 0.18413 43.957 -8.50375 157.665 -170.034 170.591 23.2913 2.55821 9.83398 19.1746 5.69858 13.77 11.8707 30.2935 7.2308 14.9586 -13.0051 11.0209 2.97245 -27.5874 4.29806 0.704304 5.62293 1.02222 6.26246 -2.4792 -4.99387 175.021 -178.94 -178.741 2.38395 5.42884 13.5908 0.113186 -3.26505 0.122606 179.525 -176.924 -179.863 178.64 177.215 -179.195 0.394052 0.682735 -10.0215 0.0963077 1.19695 0.12834
-99.8547 92.6525 37.7704 179.368 -179.713 -176.334 0.649427 3.93433 -0.63008 0.649427 3.93433 -0.63008 0.649427 3.93433 -0.63008 0.649427 3.93433 -0.63008 157.981 -179.441 179.114 166.134 157.437 156.248 0.182806 43.9982 -8.52797 158.282 -170.538 170.927 23.2914 2.55923 9.83399 19.1696 5.71346 13.7854 11.868 30.284 7.21954 14.9522 -13.0437 11.0601 2.95401 -27.5729 4.26752 0.719837 5.61576 1.03756 6.30372 -2.49035 -4.99628 175.021 -178.94 -178.741 2.39303 5.42893 13.5906 0.113318 -3.32648 0.122614 179.566 -176.903 -179.864 178.64 177.198 -179.195 0.36288 0.698574 -10.0082 0.0964989 1.11162 0.128336
-99.8623 92.6518 37.7753 179.366 -179.696 -176.335 0.64641 3.94191 -0.630605 0.64641 3.94191 -0.630605 0.64641 3.94191 -0.630605 0.64641 3.94191 -0.630605 157.984 -179.449 179.114 166.125 157.441 156.241 0.205509 43.95 -8.56235 157.666 -169.985 170.568 23.3059 2.57713 9.83413 19.1676 5.66402 13.8039 11.8916 30.2915 7.21121 14.9316 -13.0231 11.0599 2.95452 -27.5671 4.24289 0.729904 5.59954 1.04436 6.31065 -2.47464 -4.99993 175.021 -178.94 -178.741 2.39993 5.425 13.6166 0.113306 -3.32093 0.122613 179.577 -176.985 -179.785 178.641 177.327 -179.195 0.340189 0.75912 -10.0815 0.0963148 1.19376 0.128339
-99.8636 92.6545 37.7707 179.378 -179.705 -176.337 0.642162 3.94364 -0.631827 0.642162 3.94364 -0.631827 0.642162 3.94364 -0.631827 0.642162 3.94364 -0.631827 157.962 -179.437 179.114 166.128 157.453 156.236 0.182708 43.951 -8.54914 157.366 -169.88 170.339 23.3272 2.5577 9.83398 19.1564 5.71292 13.8097 11.8618 30.2805 7.23565 14.9279 -12.9542 11.0061 2.95417 -27.5731 4.24534 0.717794 5.6074 1.03578 6.29794 -2.48624 -5.01145 175.021 -178.94 -178.741 2.37864 5.44828 13.6284 0.113367 -3.34967 0.122617 179.558 -176.978 -179.788 178.642 177.338 -179.195 0.404694 0.744285 -10.0459 0.0965298 1.09782 0.128335
-99.8645 92.6539 37.7704 179.381 -179.705 -176.338 0.640571 3.9461 -0.632014 0.640571 3.9461 -0.632014 0.640571 3.9461 -0.632014 0.640571 3.9461 -0.632014 157.951 -179.44 179.114 166.121 157.454 156.231 0.18526 43.9508 -8.55456 157.37 -169.879 170.338 23.3334 2.55465 9.83395 19.1596 5.7119 13.8176 11.861 30.2801 7.24036 14.9291 -12.955 11.0062 2.95013 -27.5698 4.24402 0.716702 5.60895 1.03612 6.29345 -2.48601 -5.00822 175.021 -178.94 -178.741 2.3828 5.43961 13.6334 0.113366 -3.34898 0.122617 179.556 -176.981 -179.801 178.642 177.339 -179.195 0.405683 0.740564 -10.0574 0.0965283 1.09846 0.128335
-99.8812 92.6498 37.7628 179.378 -179.713 -176.331 0.633422 3.9478 -0.632628 0.633422 3.9478 -0.632628 0.633422 3.9478 -0.632628 0.633422 3.9478 -0.632628 157.977 -179.46 179.114 166.098 157.473 156.21 0.167403 43.9213 -8.51826 157.478 -169.9 170.386 23.3415 2.56053 9.834 19.1912 5.65767 13.8344 11.8732 30.2934 7.23823 14.9727 -12.9706 11.0464 2.94791 -27.553 4.19341 0.720234 5.59629 1.03689 6.30819 -2.49899 -5.04512 175.021 -178.941 -178.741 2.387 5.45979 13.6387 0.113365 -3.34848 0.122617 179.57 -176.872 -179.928 178.639 177.137 -179.194 0.333586 0.66034 -9.94594 0.0963625 1.17247 0.128338
-99.8925 92.6481 37.7596 179.391 -179.708 -176.324 0.622809 3.95656 -0.636387 0.622809 3.95656 -0.636387 0.622809 3.95656 -0.636387 0.622809 3.95656 -0.636387 158 -179.422 179.114 166.087 157.453 156.212 0.166623 43.9305 -8.51611 157.65 -170.016 170.541 23.3875 2.54067 9.83384 19.1866 5.67562 13.8545 11.873 30.2532 7.24989 14.894 -12.9853 10.974 2.9746 -27.5741 4.20904 0.724538 5.59921 1.03983 6.30667 -2.50067 -5.03968 175.021 -178.941 -178.741 2.34926 5.45604 13.6447 0.113341 -3.33727 0.122615 179.56 -176.88 -179.958 178.639 177.149 -179.194 0.383759 0.641251 -9.93413 0.0964548 1.1313 0.128337
-99.9001 92.6479 37.7502 179.387 -179.731 -176.35 0.618341 3.95492 -0.630733 0.618341 3.95492 -0.630733 0.618341 3.95492 -0.630733 0.618341 3.95492 -0.630733 158 -179.428 179.114 166.086 157.451 156.206 0.147439 43.8683 -8.51791 157.474 -169.955 170.448 23.4067 2.53386 9.83379 19.1833 5.69716 13.8715 11.8915 30.2055 7.23038 14.9963 -13.1197 11.1209 2.97927 -27.5788 4.1882 0.732822 5.59232 1.04672 6.31072 -2.52618 -5.03597 175.021 -178.942 -178.741 2.37007 5.4717 13.6566 0.113403 -3.36636 0.122619 179.569 -176.835 -179.909 178.638 177.11 -179.194 0.377181 0.629343 -9.9309 0.0964534 1.1319 0.128337
-99.9208 92.6499 37.7528 179.349 -179.72 -176.317 0.628532 3.96202 -0.64023 0.628532 3.96202 -0.64023 0.628532 3.96202 -0.64023 0.628532 3.96202 -0.64023 157.968 -179.423 179.114 166.099 157.436 156.209 0.136537 43.8253 -8.51329 157.521 -169.985 170.451 23.4149 2.54427 9.83387 19.1761 5.73333 13.9027 11.872 30.0897 7.23682 14.9605 -12.9357 11.0402 2.97021 -27.6058 4.19518 0.730034 5.60749 1.04544 6.36588 -2.52333 -5.10548 175.021 -178.943 -178.741 2.3439 5.44108 13.6842 0.113273 -3.3057 0.122611 179.618 -176.849 -179.935 178.639 177.115 -179.194 0.37554 0.668078 -9.93207 0.096597 1.06781 0.128334
-99.9253 92.6482 37.7446 179.369 -179.729 -176.353 0.614373 3.96588 -0.630997 0.614373 3.96588 -0.630997 0.614373 3.96588 -0.630997 0.614373 3.96588 -0.630997 157.989 -179.431 179.114 166.109 157.437 156.187 0.147443 43.867 -8.50586 157.446 -169.935 170.371 23.4347 2.5458 9.83388 19.1791 5.7348 13.9206 11.8758 30.1449 7.25537 14.8572 -12.9636 10.9959 2.9935 -27.6149 4.19967 0.728591 5.59058 1.04317 6.34743 -2.53038 -5.08931 175.021 -178.943 -178.741 2.35662 5.46381 13.717 0.11335 -3.34134 0.122616 179.606 -176.809 -179.926 178.638 177.064 -179.194 0.372659 0.593651 -9.91848 0.0963758 1.16656 0.128338
-99.9387 92.6508 37.7465 179.342 -179.722 -176.338 0.621694 3.97322 -0.636408 0.621694 3.97322 -0.636408 0.621694 3.97322 -0.636408 0.621694 3.97322 -0.636408 157.972 -179.426 179.114 166.1 157.435 156.187 0.122729 43.8355 -8.49272 157.499 -169.976 170.443 23.4408 2.52156 9.8337 19.1731 5.77524 13.9385 11.8699 30.1074 7.26345 14.9662 -12.9957 11.064 2.99922 -27.6443 4.24276 0.726705 5.59777 1.04213 6.38523 -2.52868 -5.10343 175.021 -178.943 -178.741 2.3633 5.47068 13.7025 0.113295 -3.31585 0.122612 179.644 -176.911 -179.828 178.641 177.268 -179.195 0.355358 0.717632 -10.026 0.096389 1.16065 0.128338
